<?xml version="1.0" encoding="UTF-8"?><svg width="375pt" height="100pt" version="1.1" viewBox="0 0 375 100" xmlns="http://www.w3.org/2000/svg" xmlns:xlink="http://www.w3.org/1999/xlink"><defs><symbol id="g" overflow="visible"><path d="m27.562-10.453 12.891-34.344h10.094v44.797h-7.75v-14.766l0.73438-19.688-13.203 34.453h-5.5625l-13.203-34.484 0.76562 19.719v14.766h-7.75v-44.797h10.062z"/></symbol><symbol id="f" overflow="visible"><path d="m16.984 5.0469c-0.41797 1.1016-1.0117 2.3125-1.7812 3.625-0.76172 1.3125-1.8281 2.4297-3.2031 3.3594-1.375 0.9375-3.1523 1.4062-5.3281 1.4062-0.63672 0-1.2734-0.058594-1.9062-0.17188-0.63672-0.10547-1.1992-0.21875-1.6875-0.34375v-5.7812c0.1875 0.019531 0.42578 0.039063 0.71875 0.0625 0.30078 0.019531 0.53125 0.03125 0.6875 0.03125 1.8516 0 3.2578-0.33594 4.2188-1 0.96875-0.66797 1.7266-1.8359 2.2812-3.5l1.0781-2.8906-11.688-33.125h8.0781l7.0469 22.609 6.7656-22.609h7.9688z"/></symbol><symbol id="e" overflow="visible"><path d="m39.031-44.797v44.797h-3.8125l-25.719-38.328v38.328h-3.8125v-44.797h3.8125l25.75 38.344v-38.344z"/></symbol><symbol id="d" overflow="visible"><path d="m4.5781-42.906c0-1.6641 0.84375-2.5 2.5312-2.5 1.6953 0 2.5469 0.83594 2.5469 2.5 0 1.6172-0.85156 2.4219-2.5469 2.4219-1.6875 0-2.5312-0.80469-2.5312-2.4219zm4.3438 9.625v33.281h-3.6562v-33.281z"/></symbol><symbol id="c" overflow="visible"><path d="m6.3125-33.281 8.9531 13.469 9-13.469h4.375l-11.297 16.328 11.75 16.953h-4.2969l-9.5156-14.094-9.4375 14.094h-4.3594l11.781-16.953-11.297-16.328z"/></symbol><symbol id="b" overflow="visible"><path d="m38.766-24.797v4.7969c0 6.2812-1.5781 11.289-4.7344 15.016-3.1484 3.7305-7.375 5.5938-12.688 5.5938-5.2109 0-9.4219-1.8633-12.641-5.5938-3.2188-3.7266-4.8281-8.7344-4.8281-15.016v-4.7969c0-6.25 1.5977-11.242 4.7969-14.984 3.1953-3.75 7.3984-5.625 12.609-5.625 5.3125 0 9.5508 1.875 12.719 5.625 3.1758 3.7422 4.7656 8.7344 4.7656 14.984zm-3.7656 4.7969v-4.8594c0-5.2891-1.1992-9.4844-3.5938-12.578-2.3984-3.0938-5.7734-4.6406-10.125-4.6406-4.2188 0-7.5469 1.5469-9.9844 4.6406-2.4297 3.0938-3.6406 7.2891-3.6406 12.578v4.8594c0 5.3359 1.2227 9.5547 3.6719 12.656 2.457 3.0938 5.7969 4.6406 10.016 4.6406 4.3516 0 7.7188-1.5469 10.094-4.6406 2.375-3.1016 3.5625-7.3203 3.5625-12.656z"/></symbol><symbol id="a" overflow="visible"><path d="m31.031-11.016c0-2.4766-0.875-4.4453-2.625-5.9062-1.75-1.457-4.9531-2.8438-9.6094-4.1562-4.5117-1.25-8.0781-2.8047-10.703-4.6719-2.625-1.8633-3.9375-4.5625-3.9375-8.0938 0-3.4375 1.3984-6.2227 4.2031-8.3594 2.8125-2.1328 6.4258-3.2031 10.844-3.2031 4.707 0 8.4414 1.2969 11.203 3.8906 2.7578 2.5938 4.1406 5.7617 4.1406 9.5h-3.7812c0-2.9375-1.0156-5.3633-3.0469-7.2812-2.0312-1.9141-4.8711-2.875-8.5156-2.875-3.7188 0-6.5234 0.82031-8.4062 2.4531-1.8867 1.625-2.8281 3.5547-2.8281 5.7812 0 2.1562 0.86328 3.9844 2.5938 5.4844 1.7383 1.5 4.875 2.8555 9.4062 4.0625 4.75 1.293 8.4141 2.9297 11 4.9062 2.5938 1.9805 3.8906 4.7812 3.8906 8.4062 0 3.6562-1.4531 6.5234-4.3594 8.5938-2.9062 2.0625-6.5938 3.0938-11.062 3.0938-2.668 0-5.2812-0.46094-7.8438-1.375-2.5625-0.92578-4.6875-2.375-6.375-4.3438-1.6797-1.9688-2.5156-4.5312-2.5156-7.6875h3.8125c0 2.5234 0.64844 4.5273 1.9531 6.0156 1.3008 1.4922 2.9414 2.5625 4.9219 3.2188 1.9766 0.65625 3.9922 0.98438 6.0469 0.98438 3.5312 0 6.3438-0.77344 8.4375-2.3281 2.1016-1.5508 3.1562-3.5859 3.1562-6.1094z"/></symbol></defs><g fill="#fff"><path d="m30.418 50.93 19.98 34.605-9.1836 0.085938-5.332-9.2969-5.3711 9.2461-4.5625-0.003906-2.3359-4.0352 7.6523-13.156-5.4336-9.457z" fill-rule="evenodd"/><path d="m37.629 36.676-19.98 34.602-4.6641-7.9062 5.3867-9.2695-10.695-0.027343-2.2812-3.9531 2.3281-4.0391 15.223 0.046875 5.4727-9.4297z" fill-rule="evenodd"/><path d="m39.164 64.336h39.957l-4.5156 7.9961-10.719-0.03125 5.3242 9.2773-2.2852 3.9492-4.6641 0.003906-7.5664-13.207-10.906-0.019531z" fill-rule="evenodd"/><path d="m62.418 49.172-19.977-34.605 9.1836-0.085937 5.332 9.3008 5.3711-9.25 4.5625 0.003906 2.3359 4.0352-7.6523 13.16 5.4297 9.4531z" fill-rule="evenodd"/><path d="m30.418 50.93 19.98 34.605-9.1836 0.085938-5.332-9.2969-5.3711 9.2461-4.5625-0.003906-2.3359-4.0352 7.6523-13.156-5.4336-9.457z" fill-rule="evenodd"/><path d="m53.594 35.688-39.957-0.003906 4.5156-7.9922 10.719 0.027344-5.3242-9.2734 2.2812-3.9492 4.6641-0.003906 7.5703 13.203 10.902 0.023438z" fill-rule="evenodd"/><path d="m55.164 63.422 19.98-34.602 4.6641 7.9062-5.3828 9.2656 10.691 0.03125 2.2812 3.9492-2.3281 4.043-15.223-0.050781-5.4688 9.4336z" fill-rule="evenodd"/><use x="100" y="72.671875" xlink:href="#g"/><use x="155.155762" y="72.671875" xlink:href="#f"/><use x="185.824219" y="72.671875" xlink:href="#e"/><use x="230.58252" y="72.671875" xlink:href="#d"/><use x="244.73291" y="72.671875" xlink:href="#c"/><use x="275.402344" y="72.671875" xlink:href="#b"/><use x="318.068848" y="72.671875" xlink:href="#a"/></g></svg>