<?xml version="1.0" encoding="UTF-8" standalone="no"?>
<svg
   xmlns:dc="http://purl.org/dc/elements/1.1/"
   xmlns:cc="http://creativecommons.org/ns#"
   xmlns:rdf="http://www.w3.org/1999/02/22-rdf-syntax-ns#"
   xmlns:svg="http://www.w3.org/2000/svg"
   xmlns="http://www.w3.org/2000/svg"
   viewBox="0 0 261.25 256.25"
   height="256.25"
   width="261.25"
   xml:space="preserve"
   version="1.1"
   id="svg2"><metadata
     id="metadata8"><rdf:RDF><cc:Work
         rdf:about=""><dc:format>image/svg+xml</dc:format><dc:type
           rdf:resource="http://purl.org/dc/dcmitype/StillImage" /></cc:Work></rdf:RDF></metadata><defs
     id="defs6" /><g
     transform="matrix(1.25,0,0,-1.25,0,256.25)"
     id="g10"><g
       transform="scale(0.1,0.1)"
       id="g12"><path
         id="path14"
         style="fill:#f89c0e;fill-opacity:1;fill-rule:nonzero;stroke:none"
         d="m 1057.48,2049.16 c 565.69,0 1024.26,-458.57 1024.26,-1024.26 C 2081.74,459.211 1623.17,0.640625 1057.48,0.640625 491.789,0.640625 33.2188,459.211 33.2188,1024.9 c 0,565.69 458.5702,1024.26 1024.2612,1024.26" /><path
         id="path16"
         style="fill:#ffffff;fill-opacity:1;fill-rule:nonzero;stroke:none"
         d="m 1057.48,1927.95 c -498.75,0 -903.054,-404.3 -903.054,-903.05 0,-498.748 404.304,-903.052 903.054,-903.052 498.75,0 903.05,404.304 903.05,903.052 0,498.75 -404.3,903.05 -903.05,903.05" /><path
         id="path18"
         style="fill:#231f20;fill-opacity:1;fill-rule:nonzero;stroke:none"
         d="m 288.418,1521.49 c 139.152,-4.21 308.758,-8.83 449.445,16.87 88.008,16.08 232.137,-73.28 132.469,-194.11 -46.898,-56.86 -494.355,-209.27 -626.383,-204.37 -147.867,5.48 -257.6482,269.46 -233.0818,342.69 21.832,65.08 243.4728,39.95 277.5508,38.92" /><path
         id="path20"
         style="fill:#f89c0e;fill-opacity:1;fill-rule:nonzero;stroke:none"
         d="m 86.7109,1445.77 c -7.4023,-43.57 79.0821,-227.27 182.9651,-230.74 122.312,-4.1 538.496,128.71 569.832,162.98 33.176,36.29 6.824,104.12 -84.664,89.04 -209.324,-34.5 -406.981,-4.79 -613.032,-13.73 -14.589,-0.63 -40.605,-1.57 -55.1011,-7.55" /><path
         id="path22"
         style="fill:#231f20;fill-opacity:1;fill-rule:nonzero;stroke:none"
         d="m 1783.77,1545.36 c 35.08,1.07 256.08,25.1 277.56,-38.91 24.56,-73.22 -85.22,-337.21 -233.08,-342.7 -132.04,-4.89 -579.49,147.52 -626.39,204.38 -99.66,120.83 44.46,210.19 132.47,194.11 140.69,-25.7 310.29,-21.08 449.44,-16.88" /><path
         id="path24"
         style="fill:#f89c0e;fill-opacity:1;fill-rule:nonzero;stroke:none"
         d="m 1985.48,1466.66 c -34.09,14.06 -191.51,6.74 -223.13,5.88 -133.89,-3.65 -303.17,-7.98 -445,15.39 -91.49,15.08 -117.84,-52.75 -84.66,-89.04 31.33,-34.27 447.52,-167.07 569.83,-162.98 103.88,3.48 190.37,187.18 182.96,230.75" /><path
         id="path26"
         style="fill:#231f20;fill-opacity:1;fill-rule:nonzero;stroke:none"
         d="m 655.469,1494.2 c 60.828,133.07 164.183,224.65 375.511,224.65 311.7,0 422.41,-259.26 497.4,-495.96 21.95,-69.27 40.02,-132.41 60.58,-177.57 32.91,-72.242 116.75,-199.89 116.75,-275.691 0,-357.988 -256.17,-549.449 -637.75,-549.449 -384.245,0 -647.644,186.175 -647.644,549.449 0,80.801 81.082,188.789 107.485,272.891 46.562,148.31 62.637,309.43 127.668,451.68" /><path
         id="path28"
         style="fill:#f89c0e;fill-opacity:1;fill-rule:nonzero;stroke:none"
         d="m 721.277,1462.5 c -72.105,-162.66 -73.011,-348.94 -148.32,-510.191 -22.613,-48.426 -70.324,-128.52 -70.324,-178.106 0,-328.258 228.711,-488.281 565.077,-488.281 333.85,0 555.68,165.062 555.68,488.281 0,58.109 -80.5,190.934 -106.47,249.757 -55.44,125.52 -75.48,261.61 -138.12,388.06 -66.48,134.21 -166.63,241.09 -346.14,241.09 -179.426,0 -260.867,-76.66 -311.383,-190.61" /><path
         id="path30"
         style="fill:#231f20;fill-opacity:1;fill-rule:nonzero;stroke:none"
         d="m 665.863,1890.71 c 51.742,29.64 122.371,34.52 176.387,-3.33 48.051,144.75 301.09,117.15 348.91,-14.77 130.9,93.9 292.71,-44.29 261.06,-168.41 129.03,-9.63 175.67,-201.32 47.82,-244.88 59.87,-107.48 -70.56,-199.11 -142.86,-163.3 -58.82,-115.51 -246.26,-119.13 -312.04,-11.66 -50.964,-71.47 -141.109,-65.82 -186.921,3.98 -88.957,-121.32 -248.684,-23.24 -244.196,77.02 -138.128,-6.41 -158.214,134.05 -81.019,208.8 -68.742,55.4 -15.606,146.45 57.68,152.46 -16.993,72.04 20.648,132.84 75.179,164.09" /><path
         id="path32"
         style="fill:#231f20;fill-opacity:1;fill-rule:nonzero;stroke:none"
         d="m 734.609,1063.16 c 7.266,59.28 47.149,103.14 89.086,97.98 41.934,-5.16 70.043,-57.41 62.778,-116.68 -7.262,-59.28 -47.149,-103.144 -89.082,-97.98 -41.938,5.168 -70.043,57.41 -62.782,116.68" /><path
         id="path34"
         style="fill:#ffffff;fill-opacity:1;fill-rule:nonzero;stroke:none"
         d="m 805.688,1095.75 c 2.175,17.78 13.613,31 25.539,29.53 11.925,-1.47 19.828,-17.07 17.648,-34.85 -2.176,-17.78 -13.613,-31 -25.539,-29.54 -11.926,1.47 -19.828,17.08 -17.648,34.86" /><path
         id="path36"
         style="fill:#231f20;fill-opacity:1;fill-rule:nonzero;stroke:none"
         d="m 1133.82,1035.04 c -14.46,57.94 7.04,113.18 48.02,123.39 40.99,10.21 85.95,-28.48 100.42,-86.42 14.47,-57.94 -7.03,-113.178 -48.02,-123.389 -40.99,-10.211 -85.95,28.481 -100.42,86.419" /><path
         id="path38"
         style="fill:#ffffff;fill-opacity:1;fill-rule:nonzero;stroke:none"
         d="m 1188.48,1090.94 c -4.34,17.38 1.6,33.82 13.25,36.72 11.66,2.9 24.63,-8.83 28.97,-26.21 4.34,-17.38 -1.59,-33.82 -13.25,-36.72 -11.66,-2.91 -24.63,8.83 -28.97,26.21" /><path
         id="path40"
         style="fill:#ffffff;fill-opacity:1;fill-rule:nonzero;stroke:none"
         d="m 665.523,1688.88 c -39.3,18.41 -135.574,-62.42 -46.679,-112.09 -55.317,-7.08 -113.645,-180.18 65.707,-151.85 -27.762,-32.57 68.515,-214.17 190.887,-33.99 -11.645,-63.84 128.302,-123.42 169.162,0 4.36,-86.5 224.57,-166.01 269.69,-9.91 19.09,-43.02 202.64,9.91 89,106.32 121.02,7.18 125.39,181.59 -26.3,163.18 56.87,65.25 -64.15,282.35 -214.29,137.58 -10.18,103.6 -243.493,201.43 -293.083,5.67 -50.945,79.51 -262.418,56.75 -204.094,-104.91" /><path
         id="path42"
         style="fill:#231f20;fill-opacity:1;fill-rule:nonzero;stroke:none"
         d="M 1561.48,741.039 C 1512.2,500.211 1330.83,319.238 1063.34,325.52 628.695,335.727 431.945,643.324 554.504,805.172 c 129.66,171.23 218.031,-5.617 326.453,-89.145 205.363,-158.211 680.523,25.012 680.523,25.012" /><path
         id="path44"
         style="fill:#231f20;fill-opacity:1;fill-rule:nonzero;stroke:none"
         d="m 867.863,896.371 212.167,-66.621 213.25,78.844 c 0,0 67.87,-22.446 49.88,-36.762 -17.98,-14.316 -263.13,-79.684 -263.13,-79.684 0,0 -243.514,47.59 -249.866,63.235 -6.348,15.644 37.699,40.988 37.699,40.988" /><path
         id="path46"
         style="fill:#231f20;fill-opacity:1;fill-rule:nonzero;stroke:none"
         d="m 655.02,1181.49 c 0,0 7.668,5.72 20.296,12.81 202.266,113.61 219.559,-162.3 342.634,-162.3 14.26,0 41.37,34.76 50.33,46.27 38.59,50.8 93.01,136.98 167.86,127.16 40.78,-5.34 113.57,-29.2 131.9,-74.23 0,0 -142.95,27.12 -177.43,-1.57 -28.95,-24.09 -51.75,-58.98 -74.34,-88.72 -23.82,-30.59 -55.45,-69.726 -98.32,-69.726 -88.114,0 -158.118,103.946 -206.61,167.356 -30.301,39.63 -156.32,42.95 -156.32,42.95" /><path
         id="path48"
         style="fill:#ffffff;fill-opacity:1;fill-rule:nonzero;stroke:none"
         d="m 1064.81,594.883 c -151.849,13.504 -238.412,72.344 -339.279,172.34 -51.91,51.465 -66.578,75.144 -122.543,1.238 C 410.68,514.492 1254.25,116.215 1473.5,663.105 1399.39,620.707 1270.06,576.629 1064.81,594.883" /><path
         id="path50"
         style="fill:#231f20;fill-opacity:1;fill-rule:evenodd;stroke:none"
         d="m 568.988,750.906 c 0,0 98.965,-151.715 282.864,-197.687 183.898,-45.977 160.908,-36.781 160.908,-36.781 0,0 -190.912,-13.793 -315.045,59.765 C 573.582,649.766 546,709.531 546,709.531 l 22.988,41.375" /></g></g></svg>