<svg width="506" height="92" viewBox="0 0 506 92" fill="none" xmlns="http://www.w3.org/2000/svg">
<g clip-path="url(#clip0_7_123)">
<path d="M296.036 69V41.3636H300.206V53.3736H313.984V41.3636H318.167V69H313.984V56.9496H300.206V69H296.036ZM332.469 69.4183C330.427 69.4183 328.668 68.982 327.192 68.1094C325.726 67.2277 324.593 65.9908 323.792 64.3984C323 62.7971 322.604 60.9214 322.604 58.7713C322.604 56.6482 323 54.777 323.792 53.1577C324.593 51.5384 325.708 50.2744 327.138 49.3658C328.578 48.4571 330.26 48.0028 332.185 48.0028C333.355 48.0028 334.488 48.1963 335.586 48.5831C336.683 48.9699 337.669 49.5772 338.541 50.4048C339.414 51.2325 340.102 52.3075 340.606 53.63C341.11 54.9434 341.361 56.5402 341.361 58.4205V59.8509H324.885V56.8281H337.408C337.408 55.7666 337.192 54.8265 336.76 54.0078C336.328 53.1802 335.721 52.5279 334.938 52.0511C334.165 51.5743 333.256 51.3359 332.212 51.3359C331.079 51.3359 330.089 51.6148 329.244 52.1726C328.407 52.7214 327.759 53.4411 327.3 54.3317C326.851 55.2133 326.626 56.1714 326.626 57.206V59.5675C326.626 60.9529 326.869 62.1314 327.354 63.103C327.849 64.0746 328.537 64.8168 329.419 65.3295C330.301 65.8333 331.331 66.0852 332.509 66.0852C333.274 66.0852 333.971 65.9773 334.601 65.7614C335.231 65.5365 335.775 65.2036 336.234 64.7628C336.692 64.322 337.043 63.7777 337.286 63.13L341.105 63.8182C340.799 64.9427 340.25 65.9278 339.459 66.7734C338.676 67.6101 337.691 68.2623 336.504 68.7301C335.325 69.1889 333.98 69.4183 332.469 69.4183ZM349.493 41.3636V69H345.458V41.3636H349.493ZM354.541 76.7727V48.2727H358.481V51.6328H358.819C359.053 51.201 359.39 50.7017 359.831 50.1349C360.272 49.5682 360.883 49.0734 361.666 48.6506C362.449 48.2188 363.483 48.0028 364.77 48.0028C366.443 48.0028 367.936 48.4257 369.25 49.2713C370.563 50.117 371.593 51.3359 372.34 52.9283C373.096 54.5206 373.474 56.4368 373.474 58.6768C373.474 60.9169 373.1 62.8376 372.354 64.4389C371.607 66.0312 370.581 67.2592 369.277 68.1229C367.972 68.9775 366.484 69.4048 364.81 69.4048C363.551 69.4048 362.521 69.1934 361.72 68.7706C360.928 68.3478 360.308 67.853 359.858 67.2862C359.408 66.7195 359.062 66.2157 358.819 65.7749H358.576V76.7727H354.541ZM358.495 58.6364C358.495 60.0937 358.706 61.3712 359.129 62.4688C359.552 63.5663 360.164 64.4254 360.964 65.0462C361.765 65.6579 362.746 65.9638 363.906 65.9638C365.112 65.9638 366.119 65.6444 366.929 65.0057C367.739 64.358 368.35 63.4808 368.764 62.3743C369.187 61.2678 369.398 60.0218 369.398 58.6364C369.398 57.2689 369.191 56.041 368.778 54.9524C368.373 53.8639 367.761 53.0047 366.942 52.375C366.133 51.7453 365.121 51.4304 363.906 51.4304C362.737 51.4304 361.747 51.7318 360.937 52.3345C360.137 52.9373 359.53 53.7784 359.116 54.858C358.702 55.9375 358.495 57.197 358.495 58.6364ZM410.569 50.3509H406.358C406.196 49.4512 405.895 48.6596 405.454 47.9759C405.013 47.2921 404.474 46.7119 403.835 46.2351C403.196 45.7583 402.481 45.3984 401.689 45.1555C400.907 44.9126 400.074 44.7912 399.193 44.7912C397.601 44.7912 396.175 45.1915 394.915 45.9922C393.665 46.7929 392.675 47.9669 391.946 49.5142C391.227 51.0616 390.867 52.9508 390.867 55.1818C390.867 57.4309 391.227 59.3291 391.946 60.8764C392.675 62.4238 393.669 63.5933 394.929 64.3849C396.188 65.1766 397.605 65.5724 399.179 65.5724C400.052 65.5724 400.88 65.4555 401.662 65.2216C402.454 64.9787 403.169 64.6233 403.808 64.1555C404.447 63.6877 404.986 63.1165 405.427 62.4418C405.877 61.758 406.187 60.9754 406.358 60.0938L410.569 60.1072C410.344 61.4657 409.907 62.7161 409.26 63.8587C408.621 64.9922 407.798 65.9728 406.79 66.8004C405.792 67.6191 404.649 68.2533 403.363 68.7031C402.076 69.1529 400.673 69.3778 399.152 69.3778C396.759 69.3778 394.627 68.8111 392.756 67.6776C390.885 66.535 389.409 64.9022 388.33 62.7791C387.259 60.656 386.724 58.1236 386.724 55.1818C386.724 52.2311 387.264 49.6986 388.343 47.5845C389.423 45.4614 390.898 43.8331 392.77 42.6996C394.641 41.5571 396.768 40.9858 399.152 40.9858C400.619 40.9858 401.986 41.1972 403.255 41.62C404.532 42.0339 405.679 42.6456 406.696 43.4553C407.712 44.2559 408.553 45.2365 409.219 46.397C409.885 47.5485 410.335 48.8665 410.569 50.3509ZM423.787 69.4183C421.745 69.4183 419.987 68.982 418.511 68.1094C417.045 67.2277 415.911 65.9908 415.111 64.3984C414.319 62.7971 413.923 60.9214 413.923 58.7713C413.923 56.6482 414.319 54.777 415.111 53.1577C415.911 51.5384 417.027 50.2744 418.457 49.3658C419.897 48.4571 421.579 48.0028 423.504 48.0028C424.674 48.0028 425.807 48.1963 426.905 48.5831C428.002 48.9699 428.987 49.5772 429.86 50.4048C430.733 51.2325 431.421 52.3075 431.925 53.63C432.428 54.9434 432.68 56.5402 432.68 58.4205V59.8509H416.204V56.8281H428.726C428.726 55.7666 428.51 54.8265 428.079 54.0078C427.647 53.1802 427.04 52.5279 426.257 52.0511C425.483 51.5743 424.575 51.3359 423.531 51.3359C422.398 51.3359 421.408 51.6148 420.562 52.1726C419.726 52.7214 419.078 53.4411 418.619 54.3317C418.169 55.2133 417.944 56.1714 417.944 57.206V59.5675C417.944 60.9529 418.187 62.1314 418.673 63.103C419.168 64.0746 419.856 64.8168 420.738 65.3295C421.619 65.8333 422.649 66.0852 423.828 66.0852C424.593 66.0852 425.29 65.9773 425.92 65.7614C426.549 65.5365 427.094 65.2036 427.552 64.7628C428.011 64.322 428.362 63.7777 428.605 63.13L432.424 63.8182C432.118 64.9427 431.569 65.9278 430.778 66.7734C429.995 67.6101 429.01 68.2623 427.822 68.7301C426.644 69.1889 425.299 69.4183 423.787 69.4183ZM440.812 56.6932V69H436.777V48.2727H440.65V51.6463H440.906C441.383 50.5488 442.13 49.6671 443.146 49.0014C444.172 48.3357 445.463 48.0028 447.019 48.0028C448.432 48.0028 449.669 48.2997 450.73 48.8935C451.792 49.4782 452.615 50.3509 453.2 51.5114C453.784 52.6719 454.077 54.1068 454.077 55.8161V69H450.042V56.3018C450.042 54.7995 449.651 53.6255 448.868 52.7798C448.085 51.9252 447.01 51.4979 445.643 51.4979C444.707 51.4979 443.875 51.7003 443.146 52.1051C442.427 52.5099 441.855 53.1037 441.433 53.8864C441.019 54.66 440.812 55.5956 440.812 56.6932ZM468.783 48.2727V51.5114H457.462V48.2727H468.783ZM460.498 43.3068H464.533V62.9141C464.533 63.6967 464.65 64.286 464.883 64.6818C465.117 65.0687 465.419 65.334 465.788 65.478C466.165 65.6129 466.575 65.6804 467.016 65.6804C467.339 65.6804 467.623 65.6579 467.866 65.6129C468.109 65.5679 468.298 65.532 468.432 65.505L469.161 68.8381C468.927 68.928 468.594 69.018 468.163 69.108C467.731 69.2069 467.191 69.2609 466.543 69.2699C465.482 69.2879 464.492 69.099 463.575 68.7031C462.657 68.3073 461.915 67.6955 461.348 66.8679C460.781 66.0402 460.498 65.0012 460.498 63.7507V43.3068ZM481.577 69.4183C479.535 69.4183 477.776 68.982 476.301 68.1094C474.835 67.2277 473.701 65.9908 472.9 64.3984C472.109 62.7971 471.713 60.9214 471.713 58.7713C471.713 56.6482 472.109 54.777 472.9 53.1577C473.701 51.5384 474.817 50.2744 476.247 49.3658C477.686 48.4571 479.369 48.0028 481.294 48.0028C482.463 48.0028 483.597 48.1963 484.694 48.5831C485.792 48.9699 486.777 49.5772 487.65 50.4048C488.522 51.2325 489.21 52.3075 489.714 53.63C490.218 54.9434 490.47 56.5402 490.47 58.4205V59.8509H473.993V56.8281H486.516C486.516 55.7666 486.3 54.8265 485.868 54.0078C485.437 53.1802 484.829 52.5279 484.047 52.0511C483.273 51.5743 482.364 51.3359 481.321 51.3359C480.187 51.3359 479.198 51.6148 478.352 52.1726C477.515 52.7214 476.868 53.4411 476.409 54.3317C475.959 55.2133 475.734 56.1714 475.734 57.206V59.5675C475.734 60.9529 475.977 62.1314 476.463 63.103C476.958 64.0746 477.646 64.8168 478.527 65.3295C479.409 65.8333 480.439 66.0852 481.618 66.0852C482.382 66.0852 483.08 65.9773 483.709 65.7614C484.339 65.5365 484.883 65.2036 485.342 64.7628C485.801 64.322 486.152 63.7777 486.395 63.13L490.214 63.8182C489.908 64.9427 489.359 65.9278 488.567 66.7734C487.785 67.6101 486.799 68.2623 485.612 68.7301C484.433 69.1889 483.089 69.4183 481.577 69.4183ZM494.567 69V48.2727H498.467V51.5653H498.682C499.06 50.4498 499.726 49.5727 500.68 48.9339C501.642 48.2862 502.731 47.9624 503.945 47.9624C504.197 47.9624 504.494 47.9714 504.836 47.9893C505.187 48.0073 505.461 48.0298 505.659 48.0568V51.9162C505.497 51.8712 505.209 51.8217 504.795 51.7678C504.382 51.7048 503.968 51.6733 503.554 51.6733C502.6 51.6733 501.75 51.8757 501.003 52.2805C500.266 52.6764 499.681 53.2296 499.249 53.9403C498.817 54.642 498.601 55.4427 498.601 56.3423V69H494.567Z" fill="#777777"/>
<path d="M125.802 68.6803C125.39 68.6803 125.029 68.4089 124.919 68.0167L116.316 37.3192C116.155 36.7423 116.593 36.1719 117.199 36.1719H120.494C120.913 36.1719 121.28 36.4541 121.381 36.8566L127.57 61.2001C127.592 61.2864 127.671 61.3469 127.761 61.3469C127.85 61.3469 127.928 61.2873 127.951 61.2019L134.39 36.8484C134.495 36.4499 134.859 36.1719 135.276 36.1719H139.026C139.443 36.1719 139.807 36.45 139.913 36.8484L146.351 61.2177C146.374 61.3032 146.452 61.3628 146.542 61.3628C146.631 61.3628 146.71 61.3022 146.732 61.2158L152.904 36.8573C153.007 36.4545 153.373 36.1719 153.793 36.1719H157.103C157.709 36.1719 158.147 36.7427 157.985 37.3195L149.367 68.0171C149.257 68.4091 148.896 68.6803 148.485 68.6803H144.886C144.476 68.6803 144.116 68.4103 144.005 68.0196L137.314 44.4529C137.294 44.3807 137.227 44.3308 137.151 44.3308C137.075 44.3308 137.008 44.3807 136.988 44.4529L130.298 68.0196C130.186 68.4103 129.826 68.6803 129.416 68.6803H125.802Z" fill="#222222"/>
<path d="M166.282 69.22C164.721 69.22 163.31 68.9342 162.048 68.3628C160.786 67.7808 159.786 66.9395 159.048 65.839C158.321 64.7384 157.958 63.3891 157.958 61.7912C157.958 60.4156 158.225 59.2833 158.76 58.3944C159.294 57.5055 160.016 56.8018 160.924 56.2833C161.834 55.7647 162.85 55.3732 163.972 55.1087C165.095 54.8441 166.24 54.643 167.405 54.5055C168.88 54.3361 170.078 54.1986 170.998 54.0928C171.917 53.9763 172.586 53.7912 173.002 53.5372C173.42 53.2832 173.629 52.8705 173.629 52.2991V52.188C173.629 50.8017 173.232 49.7277 172.441 48.9657C171.661 48.2038 170.495 47.8228 168.944 47.8228C167.33 47.8228 166.057 48.1774 165.127 48.8863C164.459 49.394 163.94 49.9436 163.571 50.5352C163.335 50.9127 162.898 51.1474 162.46 51.0488L159.717 50.4304C159.182 50.3098 158.87 49.7519 159.103 49.2608C159.604 48.2062 160.254 47.3248 161.053 46.6165C162.09 45.6958 163.283 45.0292 164.63 44.6165C165.978 44.1932 167.394 43.9815 168.88 43.9815C169.865 43.9815 170.906 44.0979 172.008 44.3307C173.12 44.5529 174.158 44.9656 175.12 45.5688C176.093 46.172 176.889 47.0344 177.51 48.1562C178.13 49.2673 178.44 50.7118 178.44 52.4896V67.7748C178.44 68.2749 178.03 68.6803 177.525 68.6803H174.672C174.166 68.6803 173.757 68.2749 173.757 67.7748V65.4645C173.757 65.3996 173.703 65.3469 173.638 65.3469C173.593 65.3469 173.552 65.3721 173.531 65.4117C173.221 66.0031 172.767 66.5847 172.168 67.1564C171.548 67.749 170.752 68.2411 169.778 68.6326C168.806 69.0242 167.64 69.22 166.282 69.22ZM167.325 65.4104C168.65 65.4104 169.784 65.1511 170.725 64.6326C171.677 64.114 172.398 63.4368 172.891 62.6008C173.393 61.7542 173.644 60.8495 173.644 59.8865V57.8454C173.644 57.439 173.043 57.1013 172.65 57.2198C172.168 57.3573 171.618 57.479 170.998 57.5848C170.377 57.6801 169.773 57.7701 169.185 57.8548C168.597 57.9288 168.106 57.9923 167.709 58.0452C166.779 58.1616 165.929 58.3574 165.159 58.6325C164.4 58.9076 163.79 59.3045 163.331 59.823C162.882 60.3309 162.657 61.0082 162.657 61.8548C162.657 63.0294 163.095 63.9183 163.972 64.5215C164.849 65.1141 165.967 65.4104 167.325 65.4104Z" fill="#222222"/>
<path d="M187.805 36.1719C188.311 36.1719 188.721 36.5774 188.721 37.0773V67.7749C188.721 68.275 188.311 68.6803 187.805 68.6803H184.84C184.334 68.6803 183.925 68.275 183.925 67.7749V37.0773C183.925 36.5774 184.334 36.1719 184.84 36.1719H187.805Z" fill="#222222"/>
<path d="M198.149 36.1719C198.655 36.1719 199.065 36.5774 199.065 37.0773V67.7749C199.065 68.275 198.655 68.6803 198.149 68.6803H195.184C194.679 68.6803 194.269 68.275 194.269 67.7749V37.0773C194.269 36.5774 194.679 36.1719 195.184 36.1719H198.149Z" fill="#222222"/>
<path d="M205.529 68.6803C205.023 68.6803 204.613 68.275 204.613 67.7749V45.2044C204.613 44.7045 205.023 44.299 205.529 44.299H208.494C208.999 44.299 209.409 44.7045 209.409 45.2044V67.7749C209.409 68.275 208.999 68.6803 208.494 68.6803H205.529ZM207.035 40.5371C206.201 40.5371 205.485 40.2619 204.886 39.7117C204.298 39.1508 204.003 38.4841 204.003 37.7117C204.003 36.9286 204.298 36.2619 204.886 35.7116C205.485 35.1507 206.201 34.8703 207.035 34.8703C207.869 34.8703 208.581 35.1507 209.168 35.7116C209.767 36.2619 210.067 36.9286 210.067 37.7117C210.067 38.4841 209.767 39.1508 209.168 39.7117C208.581 40.2619 207.869 40.5371 207.035 40.5371Z" fill="#222222"/>
<path d="M219.754 54.2039V67.7748C219.754 68.2749 219.344 68.6802 218.838 68.6802H215.874C215.368 68.6802 214.958 68.2749 214.958 67.7748V45.2044C214.958 44.7044 215.368 44.2989 215.874 44.2989H218.646C219.152 44.2989 219.562 44.7044 219.562 45.2044V48.0853C219.562 48.1858 219.643 48.2673 219.745 48.2673C219.819 48.2673 219.885 48.2242 219.915 48.1581C220.484 46.9176 221.355 45.917 222.528 45.1561C223.748 44.373 225.283 43.9815 227.132 43.9815C228.81 43.9815 230.281 44.3307 231.543 45.0292C232.804 45.7169 233.783 46.7434 234.478 48.1085C235.173 49.4737 235.521 51.1615 235.521 53.1721V67.7748C235.521 68.2749 235.111 68.6802 234.605 68.6802H231.641C231.135 68.6802 230.725 68.2749 230.725 67.7748V53.7435C230.725 51.9763 230.26 50.5953 229.33 49.6006C228.399 48.5953 227.121 48.0927 225.496 48.0927C224.384 48.0927 223.395 48.3307 222.528 48.807C221.673 49.2832 220.994 49.9815 220.492 50.9022C219.999 51.8123 219.754 52.9129 219.754 54.2039Z" fill="#222222"/>
<path d="M251.379 78.3312C249.422 78.3312 247.738 78.0772 246.326 77.5693C244.925 77.0613 243.782 76.3894 242.894 75.5534C242.256 74.9529 241.734 74.3116 241.329 73.6293C241.069 73.1922 241.294 72.6485 241.768 72.455L244.305 71.4194C244.721 71.2496 245.197 71.4062 245.469 71.761C245.677 72.0328 245.914 72.3128 246.182 72.601C246.674 73.1301 247.337 73.5798 248.171 73.9502C249.015 74.3206 250.101 74.5057 251.427 74.5057C253.245 74.5057 254.747 74.0666 255.934 73.1882C257.121 72.3206 257.715 70.9342 257.715 69.0295V64.4251C257.715 64.3206 257.629 64.2357 257.523 64.2357C257.453 64.2357 257.389 64.2734 257.354 64.3333C257.068 64.8263 256.67 65.3706 256.158 65.9659C255.624 66.6009 254.886 67.1511 253.945 67.6167C253.004 68.0824 251.78 68.3152 250.272 68.3152C248.326 68.3152 246.573 67.8654 245.011 66.966C243.46 66.0559 242.231 64.7172 241.322 62.95C240.424 61.1722 239.975 58.987 239.975 56.3944C239.975 53.8018 240.419 51.5794 241.306 49.7276C242.204 47.8758 243.434 46.4578 244.995 45.4735C246.556 44.4788 248.326 43.9815 250.304 43.9815C251.834 43.9815 253.068 44.2355 254.009 44.7434C254.951 45.2408 255.683 45.8228 256.207 46.4894C256.703 47.1079 257.093 47.6579 257.377 48.1397C257.418 48.2084 257.491 48.2514 257.572 48.2514C257.695 48.2514 257.794 48.1528 257.794 48.0312V45.2044C257.794 44.7044 258.205 44.2989 258.71 44.2989H261.579C262.084 44.2989 262.494 44.7044 262.494 45.2044V69.22C262.494 71.3152 262.003 73.0349 261.018 74.3788C260.035 75.7227 258.704 76.7174 257.024 77.3629C255.357 78.0084 253.475 78.3312 251.379 78.3312ZM251.331 64.3786C252.71 64.3786 253.876 64.0612 254.827 63.4262C255.79 62.7807 256.517 61.86 257.009 60.6642C257.512 59.4579 257.762 58.0135 257.762 56.3309C257.762 54.6906 257.517 53.2462 257.024 51.9975C256.533 50.7488 255.811 49.7752 254.86 49.0768C253.908 48.3678 252.732 48.0133 251.331 48.0133C249.887 48.0133 248.684 48.3837 247.722 49.1244C246.759 49.8546 246.032 50.8493 245.541 52.1086C245.059 53.3679 244.818 54.7753 244.818 56.3309C244.818 57.9288 245.065 59.3309 245.556 60.5373C246.048 61.7437 246.776 62.6854 247.738 63.3627C248.711 64.04 249.908 64.3786 251.331 64.3786Z" fill="#222222"/>
<mask id="mask0_7_123" style="mask-type:alpha" maskUnits="userSpaceOnUse" x="1" y="2" width="89" height="88">
<ellipse cx="45.051" cy="46" rx="44.051" ry="43.561" fill="#D9D9D9"/>
</mask>
<g mask="url(#mask0_7_123)">
<ellipse cx="45.051" cy="46" rx="44.051" ry="43.561" fill="#EEEEEE"/>
<path d="M66.092 46.4699C66.092 46.4353 66.0692 46.404 66.034 46.3908L35.0244 34.7357C35.0039 34.728 34.9811 34.7271 34.96 34.7334L29.3219 36.3984C29.2833 36.4097 29.2571 36.4427 29.2571 36.4798V94.3392C29.2571 94.3762 29.2833 94.4092 29.3219 94.4205L34.96 96.0855C34.9775 96.0908 34.9963 96.0911 35.014 96.0865L66.0236 88.1778C66.0641 88.1675 66.092 88.1336 66.092 88.0953V46.4699Z" fill="white" stroke="#222222" stroke-width="0.2" stroke-linejoin="round"/>
<path d="M70.3692 46.3303C70.3692 45.0553 69.4347 43.9029 67.9856 43.3664L36.8002 31.8203C35.7986 31.4495 34.6509 31.4108 33.6132 31.7127L27.9431 33.3621C26.3215 33.8339 25.2332 35.056 25.2332 36.4335V93.7515C25.2332 95.1289 26.3215 96.3512 27.9432 96.8229L33.6132 98.4723C34.4766 98.7235 35.4214 98.7402 36.2982 98.52L67.4834 90.6851C69.1947 90.2553 70.3692 88.9982 70.3692 87.5661V46.3303ZM29.4677 93.6898V36.4952L35.0398 34.8742L66.1347 46.387V87.5019L35.0456 95.3125L29.4677 93.6898Z" fill="#222222" stroke="#222222" stroke-width="0.2" stroke-linejoin="round"/>
<path d="M37.254 33.7585H33.3291V97.3861H37.254V33.7585Z" fill="#222222" stroke="#222222" stroke-width="0.2"/>
<path d="M90.5433 42.5848C90.5433 42.5498 90.5198 42.5183 90.4842 42.5053L53.1577 28.9077C53.1378 28.9004 53.1156 28.8996 53.0953 28.9055L46.3086 30.848C46.2694 30.8592 46.2429 30.8923 46.2429 30.9297V98.4323C46.2429 98.4696 46.2694 98.5028 46.3086 98.5139L53.0953 100.456C53.1122 100.461 53.1304 100.462 53.1476 100.457L90.4741 91.2305C90.515 91.2203 90.5433 91.1865 90.5433 91.1478V42.5848Z" fill="white" stroke="#222222" stroke-width="0.2" stroke-linejoin="round"/>
<path d="M94.2242 42.5354C94.2242 41.238 93.2806 40.0682 91.8251 39.5361L54.7429 25.9782C53.7763 25.6247 52.677 25.5879 51.6772 25.875L44.9351 27.8119C43.3133 28.2778 42.2195 29.5158 42.2195 30.9144V98.2196C42.2195 99.6183 43.3133 100.856 44.9351 101.322L51.6772 103.259C52.5084 103.498 53.4131 103.514 54.2563 103.305L91.3386 94.1046C93.0465 93.6807 94.2242 92.4089 94.2242 90.9566V42.5354ZM46.4025 98.157V30.9771L53.0481 29.068L90.041 42.5932V90.8912L53.0536 100.068L46.4025 98.157Z" fill="#222222" stroke="#222222" stroke-width="0.2" stroke-linejoin="round"/>
<path d="M54.3154 28.6367H50.3904V101.102H54.3154V28.6367Z" fill="#222222" stroke="#222222" stroke-width="0.2"/>
</g>
</g>
<defs>
<clipPath id="clip0_7_123">
<rect width="506" height="92" fill="white"/>
</clipPath>
</defs>
</svg>
