<svg xmlns="http://www.w3.org/2000/svg" viewBox="0 0 612 617.33">
	<defs>
		<clipPath id="clip-path">
			<path class="cls-1" d="M332.78 311.64v56.76c0 6.55-10.5 11.86-23.45 11.86s-23.46-5.26-23.46-11.86v-56.76z"/>
		</clipPath>
		<style>
			.cls-1,.cls-22{fill:none}.cls-3{fill:#58595b}.cls-4{fill:#414042}.cls-5{fill:#6d6e71}.cls-6{fill:#c49a6c}.cls-7{fill:#a97c50}.cls-9{mix-blend-mode:multiply}.cls-10{fill:#754c29}.cls-13{fill:#bcbec0}.cls-14{fill:#d1d3d4}.cls-19{fill:#808285}.cls-20{fill:#0079c1}.cls-21{fill:#231f20}.cls-22{stroke:#0079c1;stroke-miterlimit:10}.cls-34{fill:#fff}.cls-37{fill:#010101}
		</style>
	</defs>
	<g style="isolation:isolate">
		<g id="Layer_1" data-name="Layer 1">
			<path class="cls-3" d="M432.81 158.11h-.14C373.8 147.65 309.8 135.65 237 121.41a.75.75 0 1 1 .29-1.47c72.77 14.24 136.76 26.24 195.63 36.68a.75.75 0 0 1-.13 1.49z"/>
			<path class="cls-4" d="M320.29 116.42V66.6l-7.24-1.71v48.37l7.24 3.16z"/>
			<path class="cls-3" d="m321.83 65.94-1.54.66-7.24-1.71 1.53-.66 7.25 1.71z"/>
			<path class="cls-3" d="m321.83 65.94-1.54.66v49.82l1.54-.66V65.94z"/>
			<ellipse class="cls-4" cx="339.44" cy="251.96" rx="3.04" ry="2.01"/>
			<path class="cls-3" d="m333.52 249.94 22.49 5.49 5.36-2.12-22.5-5.48-5.35 2.11z"/>
			<path class="cls-4" d="M333.52 249.94v.89l22.49 5.48v-.88l-22.49-5.49z"/>
			<ellipse class="cls-4" cx="339.44" cy="249.23" rx="3.04" ry="1.31"/>
			<path class="cls-4" d="M341.4 245.48s1.05.94 1.09 1.57c0 .32-1.51.47-3 .46s-3.05-.17-3.05-.46c0-.57 1.21-1.74 1.21-1.74z"/>
			<ellipse class="cls-5" cx="339.44" cy="245.66" rx="2.01" ry=".87"/>
			<path class="cls-4" d="M336.4 247.05h6.09v2.18h-6.09z"/>
			<path class="cls-6" d="M323.65 617.29H295v-529c0-1.31 3.18-5.55 14.32-5.55s14.32 4.51 14.32 5.55z"/>
			<path class="cls-7" d="M295 88.33c0 .25-.95 5.86 14.32 6v523H295z"/>
			<path d="M295 88.33s-.5 4.06 7.15 5.36v523.6H295z" style="fill:#8b5e3c"/>
			<g class="cls-9">
				<path class="cls-6" d="M323.65 169.83v11.68s-3.9 4.09-14.32 4.09-14.33-6.08-14.33-6.08v-15.78z"/>
			</g>
			<g class="cls-9">
				<path class="cls-6" d="M323.65 227.33V239s-3.9 4.09-14.32 4.09S295 237 295 237v-15.76z"/>
			</g>
			<g class="cls-9">
				<path class="cls-6" d="M323.65 372.92v11.68s-3.9 4.08-14.32 4.08S295 382.6 295 382.6v-15.78z"/>
			</g>
			<path class="cls-3" d="M432.79 97.19a.69.69 0 0 1-.2 0C393.28 86.15 354 73.82 316 60.51a.75.75 0 0 1 .49-1.42c38 13.3 77.24 25.63 116.52 36.63a.75.75 0 0 1-.2 1.47z"/>
			<path class="cls-7" d="M396.29 177.02v21.33l-189.86-47.1v-19.08l189.86 44.85z"/>
			<path class="cls-10" d="m396.29 198.35 10.31-4.26v-21.32l-10.31 4.25v21.33z"/>
			<path d="m206.43 132.17 189.86 44.85 10.31-4.25-189.85-44.85-10.32 4.25zm0 57.64 189.86 44.85 10.31-4.25-189.85-44.85-10.32 4.25z" style="fill:#ceab83"/>
			<path class="cls-7" d="M396.29 234.7v21.33l-189.86-47.1v-19.08l189.86 44.85z"/>
			<path class="cls-10" d="m396.29 256.03 10.31-4.25v-21.33l-10.31 4.25v21.33z"/>
			<path d="M337.74 245.47s.22.72 1.7.72 1.71-.72 1.71-.72V224h-3.41z" style="fill:#939598"/>
			<ellipse class="cls-4" cx="359.24" cy="256.7" rx="4.34" ry="2.87"/>
			<path class="cls-1" d="M358.07 221.49v32.14"/>
			<path class="cls-5" d="M351.23 253.35c0 2 3.58 3.58 8 3.58s8-1.6 8-3.58v-1c-.36-1.83-3.82-2.57-8-2.57s-7.6.77-8 2.57c-.03.11 0 .88 0 1z"/>
			<ellipse class="cls-13" cx="359.24" cy="252.34" rx="8.01" ry="3.58"/>
			<path class="cls-5" d="M351.23 249.94c0 2 3.58 3.63 8 3.63s8-1.63 8-3.63v-1c-.36-1.85-3.82-2.6-8-2.6s-7.6.78-8 2.6c-.03.11 0 .88 0 1z"/>
			<ellipse class="cls-13" cx="359.24" cy="248.92" rx="8.01" ry="3.62"/>
			<path class="cls-5" d="M351.23 246.54c0 2 3.58 3.66 8 3.66s8-1.64 8-3.66v-1c-.36-1.88-3.82-2.64-8-2.64s-7.6.79-8 2.64c-.03.09 0 .87 0 1z"/>
			<ellipse class="cls-13" cx="359.24" cy="245.51" rx="8.01" ry="3.66"/>
			<path class="cls-5" d="M351.23 243.13c0 2 3.58 3.7 8 3.7s8-1.66 8-3.7v-1c-.36-1.9-3.82-2.67-8-2.67s-7.6.8-8 2.67c-.03.08 0 .87 0 1z"/>
			<ellipse class="cls-13" cx="359.24" cy="242.09" rx="8.01" ry="3.71"/>
			<path class="cls-14" d="M365.87 229.88v12s-1.43 2.53-6.83 2.53-6.43-2.78-6.43-2.78v-12.4z"/>
			<path class="cls-5" d="M351.23 230.77c0 2 3.58 3.58 8 3.58s8-1.6 8-3.58v-1c-.36-1.83-3.82-2.57-8-2.57s-7.6.76-8 2.57c-.03.11 0 .87 0 1z"/>
			<ellipse class="cls-13" cx="359.24" cy="229.76" rx="8.01" ry="3.58"/>
			<path class="cls-5" d="M351.23 227.36c0 2 3.58 3.62 8 3.62s8-1.62 8-3.62v-1c-.36-1.85-3.82-2.6-8-2.6s-7.6.77-8 2.6c-.03.1 0 .87 0 1z"/>
			<ellipse class="cls-13" cx="359.24" cy="226.34" rx="8.01" ry="3.62"/>
			<path class="cls-5" d="M351.23 224c0 2 3.58 3.67 8 3.67s8-1.64 8-3.67v-1c-.36-1.87-3.82-2.63-8-2.63s-7.6.78-8 2.63c-.03.05 0 .83 0 1z"/>
			<ellipse class="cls-13" cx="359.24" cy="222.92" rx="8.01" ry="3.66"/>
			<path class="cls-5" d="M351.23 220.54c0 2.05 3.58 3.71 8 3.71s8-1.66 8-3.71v-1c-.36-1.89-3.82-2.66-8-2.66s-7.6.79-8 2.66c-.03.09 0 .88 0 1z"/>
			<ellipse class="cls-13" cx="359.24" cy="219.5" rx="8.01" ry="3.71"/>
			<path class="cls-4" d="M348.66 213.88c-1-.22-1.62-.13-1.63.67v8l-.86-.42v-7.71c0-1.37.91-1.87 2.49-1.54z"/>
			<path class="cls-4" d="M346.17 222.1c0 .51-.18 1.4-1.36 1.13-1.82-.42-5.28-1.18-5.28-1.18l.22.93 5.19 1.16a1.55 1.55 0 0 0 2.09-1.62z"/>
			<path class="cls-3" d="m343.12 214.8 13.76 2.9 5.55-1.94-13.77-2.91-5.54 1.95zm3.82-1.88-5.23 1.84h1.41l5.54-2a2.83 2.83 0 0 0-1-.09 2 2 0 0 0-.72.25z"/>
			<ellipse class="cls-4" cx="359.24" cy="218.75" rx="4.97" ry="2.14"/>
			<path class="cls-4" d="M362.44 212.62s1.72 1.54 1.77 2.58c0 .51-2.46.75-5 .74s-5-.27-5-.74c0-.94 2-2.86 2-2.86z"/>
			<ellipse class="cls-5" cx="359.24" cy="212.92" rx="3.28" ry="1.41"/>
			<path class="cls-4" d="M354.26 215.2h9.94v3.56h-9.94z"/>
			<path class="cls-3" d="M346.19 224.06c-.11.05-5.57 2-5.57 2l.5-2.33v-7.12l.38-1 .95-.21 4.58.86v6.42a1.53 1.53 0 0 1-.84 1.38z"/>
			<path class="cls-4" d="M343.12 214.8v1.02l13.76 2.9v-1.02l-13.76-2.9z"/>
			<path class="cls-3" d="m339.53 222.05 5.28 1.18-4.98 2.11-5.84-1.35 5.54-1.94z"/>
			<path class="cls-4" d="M343.12 215.82c-1-.22-1.62-.12-1.63.67v8l-.87-.42v-7.7c0-1.38.92-1.88 2.5-1.54z"/>
			<path class="cls-4" d="M340.62 224c0 .52-.17 1.4-1.36 1.13-1.82-.38-5.26-1.13-5.26-1.13l.21.94 5.19 1.15a1.55 1.55 0 0 0 2.1-1.62z"/>
			<ellipse class="cls-4" cx="339.4" cy="223.65" rx="2.09" ry=".9"/>
			<path class="cls-4" d="M340.74 221.07s.72.65.74 1.08c0 .22-1 .32-2.08.31s-2.09-.11-2.09-.31c0-.39.83-1.19.83-1.19z"/>
			<ellipse class="cls-5" cx="339.4" cy="221.2" rx="1.38" ry=".59"/>
			<path class="cls-4" d="M337.31 222.15h4.17v1.49h-4.17z"/>
			<path class="cls-14" d="M332.78 311.56v56.76c0 6.55-10.5 11.86-23.45 11.86s-23.46-5.31-23.46-11.86v-56.76z"/>
			<path d="M296.69 378.39c-6.5-2.11-10.82-5.79-10.82-10v-56.75h10.82z" style="fill:#a7a9ac"/>
			<path class="cls-13" d="M305.44 380.09a35.28 35.28 0 0 1-12.66-3.28v-65.17l12.66 2.94z"/>
			<ellipse cx="309.33" cy="311.64" rx="23.46" ry="11.86" style="fill:#e6e7e8"/>
			<ellipse cx="309.33" cy="308.07" rx="22.14" ry="11.19" style="fill:#f1f2f2"/>
			<path class="cls-5" d="M304.22 300.83c0 1.86 2.94 3.37 6.57 3.37s6.56-1.51 6.56-3.37v-.95c-.29-1.72-3.13-2.42-6.56-2.42s-6.23.72-6.57 2.42c-.02.12 0 .83 0 .95z"/>
			<ellipse class="cls-14" cx="310.79" cy="299.88" rx="6.56" ry="3.37"/>
			<path class="cls-5" d="M304.22 297.18c0 1.88 2.94 3.41 6.57 3.41s6.56-1.53 6.56-3.41v-.95c-.29-1.74-3.13-2.45-6.56-2.45s-6.23.73-6.57 2.45c-.02.11 0 .84 0 .95z"/>
			<ellipse class="cls-14" cx="310.79" cy="296.23" rx="6.56" ry="3.4"/>
			<path class="cls-5" d="M304.22 293.54c0 1.89 2.94 3.43 6.57 3.43s6.56-1.54 6.56-3.43v-1c-.29-1.75-3.13-2.46-6.56-2.46s-6.23.73-6.57 2.46c-.02.15 0 .88 0 1z"/>
			<ellipse class="cls-14" cx="310.79" cy="292.57" rx="6.56" ry="3.43"/>
			<path class="cls-5" d="M304.22 289.89c0 1.91 2.94 3.46 6.57 3.46s6.56-1.55 6.56-3.46v-1c-.29-1.77-3.13-2.49-6.56-2.49s-6.23.74-6.57 2.49c-.02.11 0 .88 0 1z"/>
			<ellipse class="cls-14" cx="310.79" cy="288.92" rx="6.56" ry="3.46"/>
			<path class="cls-5" d="M304.22 286.24c0 1.93 2.94 3.5 6.57 3.5s6.56-1.57 6.56-3.5v-1c-.29-1.78-3.13-2.51-6.56-2.51s-6.23.75-6.57 2.51c-.02.14 0 .88 0 1z"/>
			<ellipse class="cls-14" cx="310.79" cy="285.26" rx="6.56" ry="3.49"/>
			<ellipse class="cls-4" cx="310.78" cy="284.91" rx="3.77" ry="1.63"/>
			<path class="cls-4" d="M313.22 280.26s1.3 1.16 1.33 1.95c0 .39-1.86.57-3.75.56s-3.79-.2-3.79-.56c0-.71 1.51-2.16 1.51-2.16z"/>
			<ellipse class="cls-5" cx="310.78" cy="280.49" rx="2.49" ry="1.07"/>
			<path class="cls-4" d="M307.01 282.21h7.54v2.7h-7.54z"/>
			<path class="cls-3" d="M310.78 279.84a.76.76 0 0 1-.75-.75 3.46 3.46 0 0 1 1.05-2.55c2.38-2.33 8.38-2.2 16-2.05 9.81.21 22 .47 27.85-5.26 2.41-2.36 3.59-5.52 3.59-9.66a.75.75 0 1 1 1.5 0c0 4.5-1.36 8.11-4 10.73-6.29 6.17-18.85 5.91-28.93 5.69-6.67-.14-13-.27-14.89 1.62a1.93 1.93 0 0 0-.59 1.48.76.76 0 0 1-.83.75zm-1.45 50.25c-13.58 0-24.63-5.54-24.63-12.36h1c0 6.16 10.82 11.36 23.63 11.36s23.67-5.2 23.67-11.36h1c0 6.82-11.09 12.36-24.67 12.36z"/>
			<path class="cls-5" d="M327.49 342.2c0 1.87 2.94 3.38 6.56 3.38s6.56-1.51 6.56-3.38v-.95c-.28-1.72-3.13-2.42-6.56-2.42s-6.23.72-6.56 2.42c-.02.12 0 .84 0 .95z"/>
			<ellipse class="cls-14" cx="334.05" cy="341.25" rx="6.56" ry="3.37"/>
			<path class="cls-5" d="M327.49 338.24c0 1.88 2.94 3.39 6.56 3.39s6.56-1.51 6.56-3.39v-.95c-.28-1.74-3.13-2.44-6.56-2.44s-6.23.73-6.56 2.44c-.02.11 0 .84 0 .95z"/>
			<ellipse class="cls-14" cx="334.05" cy="337.29" rx="6.56" ry="3.39"/>
			<path class="cls-5" d="M327.49 334.28c0 1.89 2.94 3.41 6.56 3.41s6.56-1.52 6.56-3.41v-1c-.28-1.74-3.13-2.45-6.56-2.45s-6.23.73-6.56 2.45c-.02.16 0 .88 0 1z"/>
			<ellipse class="cls-14" cx="334.05" cy="333.32" rx="6.56" ry="3.41"/>
			<path class="cls-5" d="M327.49 330.32c0 1.9 2.94 3.43 6.56 3.43s6.56-1.53 6.56-3.43v-1c-.28-1.76-3.13-2.47-6.56-2.47s-6.23.74-6.56 2.47c-.02.15 0 .88 0 1z"/>
			<ellipse class="cls-14" cx="334.05" cy="329.36" rx="6.56" ry="3.43"/>
			<path class="cls-5" d="M327.49 326.36c0 1.91 2.94 3.45 6.56 3.45s6.56-1.54 6.56-3.45v-1c-.28-1.77-3.13-2.48-6.56-2.48s-6.23.74-6.56 2.48c-.02.15 0 .88 0 1z"/>
			<ellipse class="cls-14" cx="334.05" cy="325.39" rx="6.56" ry="3.45"/>
			<path class="cls-5" d="M327.49 322.4c0 1.92 2.94 3.47 6.56 3.47s6.56-1.55 6.56-3.47v-1c-.28-1.77-3.13-2.49-6.56-2.49s-6.23.74-6.56 2.49c-.02.14 0 .88 0 1z"/>
			<ellipse class="cls-14" cx="334.05" cy="321.42" rx="6.56" ry="3.47"/>
			<path class="cls-5" d="M327.49 318.44c0 1.93 2.94 3.49 6.56 3.49s6.56-1.56 6.56-3.49v-1c-.28-1.79-3.13-2.51-6.56-2.51s-6.23.75-6.56 2.51c-.02.13 0 .88 0 1z"/>
			<ellipse class="cls-14" cx="334.05" cy="317.46" rx="6.56" ry="3.49"/>
			<ellipse class="cls-4" cx="334.09" cy="316.32" rx="3.77" ry="1.63"/>
			<path class="cls-4" d="M336.52 311.67s1.3 1.17 1.34 1.95c0 .4-1.86.57-3.75.56s-3.79-.2-3.79-.56c0-.71 1.51-2.16 1.51-2.16z"/>
			<ellipse class="cls-5" cx="334.09" cy="311.9" rx="2.49" ry="1.07"/>
			<path class="cls-4" d="M330.32 313.62h7.54v2.7h-7.54z"/>
			<path class="cls-3" d="M343.08 418.12c-18.29 0-29.21-2.53-34.8-7.64-5-4.61-5.84-10.94-5.47-19.67.66-15.68-3.83-54.91-3.88-55.3a.75.75 0 0 1 1.49-.18c.05.4 4.56 39.75 3.89 55.54-.35 8.3.36 14.28 5 18.5 10 9.16 38.48 9.65 98.21 1.69 3.19-.43 6.35-1 9.7-1.53 5.12-.87 10.41-1.77 15.73-2.22a.75.75 0 0 1 .13 1.5c-5.26.44-10.52 1.33-15.61 2.2-3.22.54-6.54 1.11-9.75 1.54-27.83 3.7-48.95 5.57-64.64 5.57z"/>
			<path class="cls-3" d="M343.72 417.58c-19.44 0-28.05-3-32.82-7.52-4.18-3.95-5.64-9.42-4.89-18.3 1.45-17 2.35-32.35 2.35-56.22a.75.75 0 0 1 1.5 0c0 23.92-.9 39.29-2.35 56.34-.72 8.38.61 13.49 4.42 17.09 10 9.49 39.61 9.54 105.46.17 5.45-.78 10.91-1.36 15.53-1.83a.76.76 0 0 1 .82.67.75.75 0 0 1-.67.82c-4.6.47-10 1.05-15.47 1.82-34.55 4.92-57.88 6.96-73.88 6.96z"/>
			<path class="cls-3" d="M346.89 416.84c-18.16 0-28.4-2.48-33.84-7.45-3.72-3.4-5.32-8.09-5-14.78s1.94-14.13 3.7-21.93c2.44-10.86 5.21-23.18 5.21-37.43a.75.75 0 0 1 1.5 0c0 14.42-2.79 26.82-5.25 37.76-1.74 7.74-3.39 15-3.66 21.66-.27 6.21 1.18 10.54 4.55 13.61 10.32 9.43 40.94 9.36 113-.24l5.86-.73a.76.76 0 0 1 .83.66.74.74 0 0 1-.66.83c-1.87.23-4 .48-5.83.73-36.63 4.87-62.41 7.31-80.41 7.31z"/>
			<path class="cls-5" transform="rotate(-180 308.295 430.555)" d="M304.74 427h7.12v7.12h-7.12z"/>
			<path class="cls-5" d="M307.11 426.11h2.38v2.38h-2.38zm0 6.31h2.38v2.38h-2.38z"/>
			<path class="cls-3" d="M172.36 457a.75.75 0 0 1-.08-1.49c85.52-9.9 135.31-24.67 135.8-24.82a.81.81 0 0 1 .41 0c.52.14 52.62 14 124.57 23.09a.75.75 0 0 1-.18 1.49c-69.77-8.8-120.92-22.11-124.57-23.07-3.58 1-53 15.22-135.86 24.81z"/>
			<path class="cls-4" transform="rotate(-180 308.345 431.585)" d="M305.9 429.14h4.88v4.88h-4.88z"/>
			<path class="cls-5" transform="rotate(-180 308.295 458.46)" d="M304.74 454.9h7.12v7.12h-7.12z"/>
			<path class="cls-5" d="M307.11 454.01h2.38v2.38h-2.38zm0 6.31h2.38v2.38h-2.38z"/>
			<path class="cls-3" d="M156 494.65a.75.75 0 0 1-.1-1.5 958.59 958.59 0 0 0 112.3-21.78c25.66-6.71 39.7-11.88 39.84-11.93a.66.66 0 0 1 .48 0c3.44 1.09 7.6 2.56 12.43 4.27 21.72 7.7 58.07 20.59 112.13 28.59a.75.75 0 0 1 .63.85.76.76 0 0 1-.85.64c-54.2-8-90.64-20.95-112.41-28.66-4.7-1.67-8.77-3.11-12.14-4.19-2 .72-15.83 5.64-39.7 11.89a961.83 961.83 0 0 1-112.47 21.82z"/>
			<path class="cls-3" d="M159.06 487.56a.75.75 0 0 1-.08-1.49c93.63-10.72 148.54-28.05 149.09-28.22a.67.67 0 0 1 .42 0c4.36 1.16 9.39 2.69 15.21 4.46 22.84 6.94 57.35 17.42 109.37 23.48a.74.74 0 0 1 .65.83.76.76 0 0 1-.83.66c-52.15-6.07-86.74-16.58-109.62-23.54-5.72-1.73-10.67-3.24-15-4.39-3.82 1.2-58.31 17.82-149.16 28.22z"/>
			<path class="cls-4" transform="rotate(-180 308.345 459.49)" d="M305.9 457.05h4.88v4.88h-4.88z"/>
			<circle class="cls-3" cx="318.16" cy="334.19" r="2.33"/>
			<circle class="cls-19" cx="318.5" cy="334.39" r="1.99"/>
			<circle class="cls-3" cx="300.5" cy="334.19" r="2.33"/>
			<circle class="cls-19" cx="300.16" cy="334.39" r="1.99"/>
			<circle class="cls-3" cx="309.33" cy="334.93" r="2.33"/>
			<circle class="cls-19" cx="309.33" cy="335.13" r="1.99"/>
		</g>
		<g id="Layer_2" data-name="Layer 2">
			<path class="cls-4" d="m241.9 127.51 2.72 7.35a1.43 1.43 0 0 1-.26 1.46c-.68.76-3.3 1.65-7.17 1.65s-6.81-1.5-7.35-2.47a1.47 1.47 0 0 1-.08-1.23l3-7.92zm134.84 31.57 2.72 7.35a1.43 1.43 0 0 1-.25 1.47c-.69.75-3.31 1.65-7.18 1.65s-6.8-1.51-7.34-2.48a1.43 1.43 0 0 1-.09-1.23l3-7.91z"/>
			<path class="cls-3" d="M432.84 166.55h-.14c-20.34-3.83-40.8-7.89-60.82-12.08a.75.75 0 0 1 .3-1.47c20 4.19 40.47 8.25 60.8 12.08a.75.75 0 0 1-.14 1.49z"/>
			<path class="cls-19" d="M237.17 134.12c-6.32 0-11.44-1.85-11.44-4.13s5.12-9.31 11.44-9.31 11.43 7 11.43 9.31-5.12 4.13-11.43 4.13M316 73.32c-6.32 0-11.44-1.85-11.44-4.13s5.12-9.31 11.44-9.31 11.43 7 11.43 9.31-5.12 4.13-11.43 4.13m56 92.41c-6.31 0-11.43-1.85-11.43-4.13s5.12-9.31 11.43-9.31 11.44 7 11.44 9.31-5.12 4.13-11.44 4.13"/>
			<path class="cls-3" d="M177.85 162a.75.75 0 0 1-.66-.4.73.73 0 0 1 .31-1c23.33-12.26 43.23-25.88 59.16-40.47a.75.75 0 0 1 1 1.11c-16 14.68-36 28.36-59.47 40.68a.73.73 0 0 1-.34.08zm-.04 85.62a.74.74 0 0 1-.72-.55.74.74 0 0 1 .52-.92c83.74-23.23 150.8-55.88 193.92-94.42a.76.76 0 0 1 1.16.19c.37.68 9.15 16.68 5 29.08a17.81 17.81 0 0 1-10.17 10.83c-11.43 5.13-9.93 10.59-8.48 15.86A17.52 17.52 0 0 1 360 213a.73.73 0 0 1-.78.71.75.75 0 0 1-.71-.78 16.88 16.88 0 0 0-.86-4.81c-1.46-5.32-3.28-12 9.32-17.62a16.35 16.35 0 0 0 9.35-9.93c3.4-10.23-2.75-23.6-4.49-27C328.5 191.91 261.51 224.44 178 247.6z"/>
			<path class="cls-20" d="M406.6 174.08a17.23 17.23 0 1 1 17.22-17.22 17.24 17.24 0 0 1-17.22 17.22zm0-31.45a14.23 14.23 0 1 0 14.22 14.23 14.24 14.24 0 0 0-14.22-14.23zm-186.24 322.7a17.23 17.23 0 1 1 17.23-17.23 17.25 17.25 0 0 1-17.23 17.23zm0-31.45a14.23 14.23 0 1 0 14.23 14.22 14.24 14.24 0 0 0-14.23-14.22zM362.09 92.55a17.23 17.23 0 1 1 17.22-17.23 17.25 17.25 0 0 1-17.22 17.23zm0-31.45a14.23 14.23 0 1 0 14.22 14.22 14.24 14.24 0 0 0-14.22-14.22zm44.54 371.01a17.23 17.23 0 1 1 17.23-17.22 17.23 17.23 0 0 1-17.23 17.22zm0-31.45a14.23 14.23 0 1 0 14.23 14.23 14.24 14.24 0 0 0-14.23-14.23zm0 100.61a17.23 17.23 0 1 1 17.23-17.22 17.24 17.24 0 0 1-17.23 17.22zm0-31.45a14.23 14.23 0 1 0 14.23 14.23 14.24 14.24 0 0 0-14.23-14.23zm-73.11-117.11a24.87 24.87 0 1 1 24.86-24.87 24.9 24.9 0 0 1-24.86 24.87zm0-46.74a21.87 21.87 0 1 0 21.86 21.87A21.89 21.89 0 0 0 333.52 306zm21.74-37.34a32.83 32.83 0 1 1 32.84-32.83 32.86 32.86 0 0 1-32.84 32.83zm0-62.66a29.83 29.83 0 1 0 29.84 29.83 29.86 29.86 0 0 0-29.84-29.8z"/>
			<path class="cls-21" d="M232.75 121.32c0 .57 2.21 1.53 4.42 1.53s4.42-1 4.42-1.53c0-1.14-2-2.82-4.42-2.82s-4.42 1.68-4.42 2.82zm134.86 31.61c0 .57 2.21 1.53 4.42 1.53s4.42-1 4.42-1.53c0-1.14-2-2.81-4.42-2.81s-4.42 1.67-4.42 2.81z"/>
			<path class="cls-20" d="M209.04 218.55h-14.15v-40.41h14.15v3h-11.15v34.41h11.15v3zm81.55 170.17h-20.96v-98.48h20.54v3h-17.54v92.48h17.96v3zm116.51-251.2h-1v-4h1zm0-8h-1v-4h1zm0-8h-1v-4h1zm0-8h-1v-4h1zm0-8h-1v-4h1zm0-8h-1v-4h1zm0-8h-1v-4h1zm0-8h-1v-4h1zm0-8h-1v-4h1z"/>
			<path class="cls-3" d="M177.89 112.81a.75.75 0 0 1-.73-.6.76.76 0 0 1 .58-.89c65.69-13.74 113.07-31.75 137-52.09a.75.75 0 0 1 1 1.14C291.59 80.87 244 99 178.05 112.79z"/>
			<path class="cls-21" d="M311.59 61.15c0 .57 2.21 1.53 4.42 1.53s4.42-1 4.42-1.53c0-1.14-2-2.81-4.42-2.81s-4.42 1.66-4.42 2.81z"/>
			<path class="cls-20" d="M316 84.64a17.23 17.23 0 1 1 17.22-17.22A17.24 17.24 0 0 1 316 84.64zm0-31.45a14.23 14.23 0 1 0 14.22 14.23A14.24 14.24 0 0 0 316 53.19z"/>
			<path class="cls-22" d="M134.54 64.11h2"/>
			<path style="stroke-dasharray:3.99 3.99;stroke:#0079c1;stroke-miterlimit:10;fill:none" d="M140.53 64.11h149.66"/>
			<path class="cls-22" d="M292.19 64.11h2m83.8.69h2"/>
			<path style="stroke-dasharray:4.12 4.12;stroke:#0079c1;stroke-miterlimit:10;fill:none" d="M384.11 64.8h88.6"/>
			<path class="cls-22" d="M474.77 64.8h2M134.54 363.01h2"/>
			<path style="stroke-dasharray:3.99 3.99;stroke:#0079c1;stroke-miterlimit:10;fill:none" d="M140.53 363.01h45.91"/>
			<path class="cls-22" d="M188.44 363.01h2m-55.9 84.8h2"/>
			<path style="stroke-dasharray:4.21 4.21;stroke:#0079c1;stroke-miterlimit:10;fill:none" d="M140.75 447.81h56.89"/>
			<path class="cls-22" d="M199.74 447.81h2m-67.2-166.95h2"/>
			<path style="stroke-dasharray:4.29 4.29;stroke:#0079c1;stroke-miterlimit:10;fill:none" d="M140.82 280.86h32.16"/>
			<path class="cls-22" d="M175.12 280.86h2v2"/>
			<path style="stroke-dasharray:4.28 4.28;stroke:#0079c1;stroke-miterlimit:10;fill:none" d="M177.12 287.14v40.69"/>
			<path class="cls-22" d="M177.12 329.97v2h2"/>
			<path style="stroke-dasharray:4.2 4.2;stroke:#0079c1;stroke-miterlimit:10;fill:none" d="M183.32 331.97h73.51"/>
			<path class="cls-22" d="M258.93 331.97h2M134.54 198.39h2"/>
			<path style="stroke-dasharray:4.02 4.02;stroke:#0079c1;stroke-miterlimit:10;fill:none" d="M140.55 198.39h46.22"/>
			<path class="cls-22" d="M188.78 198.39h2"/>
			<path d="M387.62 219.57h45.9v-21.95h45.25m-116.1 130.36h70.85v-47.22h43.25m-70.19 113.07v-28.62h70.19m-69.52 99.13v-20.3h71.52" style="stroke-dasharray:4 4;stroke:#0079c1;stroke-miterlimit:10;fill:none"/>
		</g>
		<g id="Layer_3" data-name="Layer 3">
			<path class="cls-3" transform="rotate(-66.59 207.947 373.84)" d="M-11.16 372.85h438.24v2H-11.16z"/>
			<path class="cls-20" d="M212.64 381.25A17.23 17.23 0 1 1 229.87 364a17.24 17.24 0 0 1-17.23 17.25zm0-31.45a14.23 14.23 0 1 0 14.23 14.2 14.24 14.24 0 0 0-14.23-14.2z"/>
			<path d="M143.83 537c-2.45-.2-7.9-2.36-9.09-4.24l-37.09 84.53h10.14z" style="fill:#ffd200"/>
			<path d="m137.72 535.29-36.16 82h-3.91l37.09-84.52a9.09 9.09 0 0 0 2.98 2.52z" style="fill:#febe10"/>
			<circle class="cls-20" cx="112.39" cy="65.94" r="16.76"/>
			<path class="cls-34" d="M108.78 62.5c-.27.1-.4 0-.4-.3v-1.85a.42.42 0 0 1 .31-.42l3.31-1.11a1.71 1.71 0 0 1 .64-.14H114a.31.31 0 0 1 .31.31V69.4h2.57a.3.3 0 0 1 .31.29v1.88a.31.31 0 0 1-.31.29h-8.2a.3.3 0 0 1-.29-.29v-1.88a.3.3 0 0 1 .29-.29h2.77v-7.8z"/>
			<circle class="cls-20" cx="500.98" cy="65.94" r="16.76"/>
			<path class="cls-34" d="M499.12 64.23a3.73 3.73 0 0 1 2.4-.8 3.91 3.91 0 0 1 4.19 4.24 4.29 4.29 0 0 1-4.59 4.38c-2.56 0-4.9-1.33-4.9-6.2 0-2.65.73-7.24 5.49-7.24a6.8 6.8 0 0 1 3.67.94.23.23 0 0 1 .11.36l-.82 1.75c-.1.21-.23.21-.42.1a4.75 4.75 0 0 0-2.58-.73c-1.5-.03-2.49 1.32-2.55 3.2zm-.12 2.48c.08 2.67 1.33 3 2.12 3a1.82 1.82 0 0 0 1.88-1.96 1.69 1.69 0 0 0-1.79-1.94 2.82 2.82 0 0 0-2.21.9z"/>
			<circle class="cls-20" cx="112.39" cy="200.51" r="16.76"/>
			<path class="cls-34" d="M116.35 204a.3.3 0 0 1 .29.29v1.88a.3.3 0 0 1-.29.29h-8.2a.3.3 0 0 1-.29-.29v-1a5 5 0 0 1 1.44-4c1.33-1.29 3-1.68 4.07-2.64a1.77 1.77 0 0 0 .68-1.42 1.47 1.47 0 0 0-.43-1.07 1.74 1.74 0 0 0-1.32-.46 5.43 5.43 0 0 0-3 1.09c-.17.1-.38.16-.48-.08l-.79-1.61c-.09-.15 0-.27.12-.38a7.49 7.49 0 0 1 4.36-1.39 4.37 4.37 0 0 1 3.26 1.31 3.65 3.65 0 0 1 .94 2.52 3.91 3.91 0 0 1-1.32 3c-1.29 1.23-2.77 1.58-3.84 2.46a1.79 1.79 0 0 0-.65 1.52z"/>
			<circle class="cls-20" cx="112.39" cy="282.53" r="16.76"/>
			<path class="cls-34" d="M110.3 282.92a.3.3 0 0 1-.31-.3V281a.3.3 0 0 1 .31-.3h.63a3.07 3.07 0 0 0 1.64-.33 1.57 1.57 0 0 0 .75-1.38 1.46 1.46 0 0 0-.48-1.06 1.5 1.5 0 0 0-1-.38 4.59 4.59 0 0 0-2.48.9.28.28 0 0 1-.46-.08l-.75-1.54a.28.28 0 0 1 .1-.42 6.43 6.43 0 0 1 3.75-1.21 4.12 4.12 0 0 1 2.65.85 3.26 3.26 0 0 1 1.21 2.59 3.07 3.07 0 0 1-1.88 3 3.56 3.56 0 0 1 1 6.12 5.16 5.16 0 0 1-3.12.91 6.86 6.86 0 0 1-3.84-1 .26.26 0 0 1-.11-.39l.79-1.61c.11-.21.25-.19.44-.08a4.13 4.13 0 0 0 2.51.87 2.42 2.42 0 0 0 1.31-.33 1.53 1.53 0 0 0 .69-1.38 1.63 1.63 0 0 0-.86-1.5 3.45 3.45 0 0 0-1.67-.29z"/>
			<circle class="cls-20" cx="112.39" cy="361.01" r="16.76"/>
			<path class="cls-34" d="M113.22 366.93a.3.3 0 0 1-.31-.29v-2.19h-5.51a.3.3 0 0 1-.29-.28v-1.65a.66.66 0 0 1 .18-.52l5.64-7.9a.54.54 0 0 1 .52-.27h1.9a.31.31 0 0 1 .31.29v8h1.63a.3.3 0 0 1 .29.31v1.75a.29.29 0 0 1-.29.28h-1.63v2.19a.3.3 0 0 1-.31.29zm-3.13-4.82h2.82v-4z"/>
			<circle class="cls-20" cx="112.39" cy="446.59" r="16.76"/>
			<path class="cls-34" d="M108.67 439.73a.31.31 0 0 1 .31-.3h6.85a.3.3 0 0 1 .31.3v1.87a.3.3 0 0 1-.31.3h-4.76l-.19 2.29a3 3 0 0 1 .77-.27 3.08 3.08 0 0 1 .88-.11 4.05 4.05 0 0 1 3.32 1.32 4.7 4.7 0 0 1 1 3.07 4.43 4.43 0 0 1-1.15 3.1 5 5 0 0 1-3.75 1.4 6 6 0 0 1-3.78-1.1.29.29 0 0 1-.13-.4l.76-1.61a.23.23 0 0 1 .37-.1 4.31 4.31 0 0 0 2.78 1 2.15 2.15 0 0 0 1.62-.65 2.71 2.71 0 0 0 0-3.19 1.81 1.81 0 0 0-1.44-.6 2.19 2.19 0 0 0-1.2.35 2 2 0 0 0-.71.73.3.3 0 0 1-.42.15l-1.3-.27c-.27-.05-.31-.13-.31-.44z"/>
			<circle class="cls-20" cx="500.98" cy="200.51" r="16.76"/>
			<path class="cls-34" d="M505.07 193.35a.3.3 0 0 1 .31.3v1.66a1.31 1.31 0 0 1-.13.57l-4.69 10.26a.48.48 0 0 1-.5.29h-2.36c-.35 0-.37-.25-.25-.5l3.36-6.84c.54-1.1 1.21-2.17 1.84-3.27h-3.9v1.54a.3.3 0 0 1-.3.29h-1.89a.3.3 0 0 1-.28-.29v-3.71a.29.29 0 0 1 .28-.3z"/>
			<circle class="cls-20" cx="500.98" cy="364.56" r="16.76"/>
			<path class="cls-34" d="M502.83 365.06a3.54 3.54 0 0 1-2.41.81 3.92 3.92 0 0 1-4.22-4.22 4.33 4.33 0 0 1 4.63-4.4c2.48 0 4.9 1.38 4.9 6.22 0 2.63-.77 7.22-5.52 7.22a6.62 6.62 0 0 1-3.66-1c-.18-.1-.2-.23-.12-.36l.83-1.71c.09-.22.23-.22.42-.1a4.7 4.7 0 0 0 2.49.73c1.66.04 2.48-1.52 2.66-3.19zm-2-5.43a1.84 1.84 0 0 0-1.86 1.94c0 1.52.92 1.94 1.78 1.94a3 3 0 0 0 2.19-.92c-.1-2.54-1.25-2.96-2.11-2.96z"/>
			<circle class="cls-20" cx="500.98" cy="282.53" r="16.76"/>
			<path class="cls-34" d="M505.88 285c0 2.17-1.77 3.66-4.9 3.66s-4.91-1.46-4.91-3.63c0-1.86 1.32-2.82 2.55-3.45-.94-.64-2-1.38-2-3 0-2.32 2.17-3.32 4.36-3.32 2 0 4.38.92 4.38 3.32a3.38 3.38 0 0 1-1.92 3c1.31.82 2.44 1.59 2.44 3.42zm-5-2.25c-1.46.59-2 1.29-2 2s.48 1.73 2.09 1.73 2.15-.86 2.15-1.73-.87-1.43-2.25-2.02zm.15-5.45c-.79 0-1.65.26-1.65 1.24s1 1.54 1.78 1.9c1.2-.59 1.46-1.22 1.46-1.78a1.42 1.42 0 0 0-1.62-1.38z"/>
			<circle class="cls-20" cx="500.98" cy="446.59" r="16.76"/>
			<path class="cls-34" d="M492.41 443.15c-.27.1-.41 0-.41-.3V441a.42.42 0 0 1 .31-.42l3.28-1.11a1.75 1.75 0 0 1 .64-.14h1.34a.31.31 0 0 1 .31.31v10.41h2.57a.3.3 0 0 1 .31.29v1.88a.31.31 0 0 1-.31.29h-8.2a.3.3 0 0 1-.29-.29v-1.88a.3.3 0 0 1 .29-.29H495v-7.8zM506 452.7c-3.22 0-5-2.31-5-6.72s1.75-6.74 5-6.74 5 2.3 5 6.74-1.79 6.72-5 6.72zm1.56-9.91a1.76 1.76 0 0 0-3.11 0 8.62 8.62 0 0 0 0 6.37 1.78 1.78 0 0 0 3.13 0 6.82 6.82 0 0 0 .56-3.18 6.92 6.92 0 0 0-.58-3.19z"/>
		</g>
		<g id="Layer_5" data-name="Layer 5">
			<path class="cls-20" d="M310 552.07a17.23 17.23 0 1 1 17.22-17.23A17.25 17.25 0 0 1 310 552.07zm0-31.45a14.23 14.23 0 1 0 14.22 14.22A14.24 14.24 0 0 0 310 520.62z"/>
			<path style="stroke-width:.99px;stroke-dasharray:3.95 3.95;stroke:#0079c1;stroke-miterlimit:10;fill:none" d="M332.83 534.32h148.94"/>
			<circle class="cls-20" cx="500.98" cy="534.37" r="16.76"/>
			<path class="cls-34" d="M492.41 530.94c-.27.1-.41 0-.41-.31v-1.84a.42.42 0 0 1 .31-.42l3.28-1.12a2 2 0 0 1 .64-.13h1.34a.31.31 0 0 1 .31.31v10.41h2.57a.3.3 0 0 1 .31.28V540a.3.3 0 0 1-.31.28h-8.2a.3.3 0 0 1-.25-.28v-1.89a.3.3 0 0 1 .29-.28H495V530zm10 0c-.27.1-.41 0-.41-.31v-1.84a.42.42 0 0 1 .31-.42l3.28-1.12a2 2 0 0 1 .64-.13h1.34a.31.31 0 0 1 .31.31v10.41h2.57a.3.3 0 0 1 .31.28V540a.3.3 0 0 1-.31.28h-8.2a.3.3 0 0 1-.25-.28v-1.89a.3.3 0 0 1 .29-.28H505V530z"/>
			<rect x="301.16" y="529.87" width="17.41" height="8.83" rx=".83" style="fill:#eaeaea"/>
			<path class="cls-37" d="M304.15 534.62c.51 0 .66.47.66 1.74 0 1 0 1.92-.66 1.92s-.66-.48-.66-1.75c0-.99.03-1.91.66-1.91zm-.24 2.07c0 .9 0 1.11.24 1.11s.23-.28.23-1.21v-.39c0-.9-.05-1.11-.23-1.11s-.24.29-.24 1.21zm2.01-.25v.6h-.84v-.6zm.76 1.76v-2.53h-.42v-.47c.28 0 .45-.19.49-.58h.32v3.58zm2.24-2.94h-.78v.81a.39.39 0 0 1 .39-.27c.4 0 .51.58.51 1.15 0 .78-.13 1.33-.67 1.33s-.62-.6-.62-1v-.1h.41c0 .24 0 .59.21.59s.25-.23.25-.7-.06-.76-.25-.76-.19.13-.2.33h-.39l.08-1.95h1.1zm.96-.64c.51 0 .66.47.66 1.74 0 1 0 1.92-.66 1.92s-.66-.48-.66-1.75c0-.99.04-1.91.66-1.91zm-.23 2.07c0 .9.05 1.11.23 1.11s.24-.28.24-1.21v-.39c0-.9-.05-1.11-.24-1.11s-.23.29-.23 1.21zm2.01-.25v.6h-.84v-.6zm.26.42.7-2.24h.44v2.27h.2v.57h-.2v.74h-.39v-.74h-.75zm.75-1.33-.41 1.36h.42zm2.08-.84v.56a10.1 10.1 0 0 0-.61 3h-.45a9.08 9.08 0 0 1 .65-2.88h-.88v-.63zm1.52 0v.56a9.79 9.79 0 0 0-.62 3h-.45a9.39 9.39 0 0 1 .66-2.88H315v-.63z"/>
			<circle class="cls-4" cx="302.37" cy="534.29" r=".76"/>
			<circle class="cls-4" cx="317.33" cy="534.41" r=".76"/>
			<path class="cls-37" d="M311.88 530.4h.06v3.46h-.06zm-.45 0h.17v3.46h-.17zm.74 0h.06v3.46h-.06zm-1.49 0h.05v3.46h-.05zm.29 0h.17v3.46h-.17zm1.67 0h.17v3.46h-.17zm1.47 0h.07v3.46h-.07zm-4.05 0h.17v3.46h-.17zm4.33 0h.08v3.46h-.08zm.37 0h.18v3.46h-.18zm.36 0h.06v3.46h-.06zm-2.2 0h.06v3.46h-.06zm.44 0h.06v3.46h-.06zm.18 0h.17v3.46h-.17zm-7.32 0h.17v3.46h-.17zm.29 0h.17v3.46h-.17zm.44 0h.17v3.46h-.17zm.28 0h.05v3.46h-.05zm-2.29 0h-.06v3.46h.06m-.34-3.46h.06v3.46h-.06zm.62 0h-.17v3.46h.17m.56-3.46h.05v3.46h-.05zm-.44 0h.17v3.46h-.17zm3.36 0h.17v3.46h-.17zm.45 0h.05v3.46h-.05zm.33 0h.04v3.46h-.04zm-1.35 0h.17v3.46h-.17zm1.63 0h.17v3.46h-.17zm-1.91 0h.17v3.46h-.17zm-.33 0h.05v3.46h-.05z"/>
		</g>
	</g>
</svg>
